<mxfile host="app.diagrams.net" modified="2023-08-07T10:19:30.144Z" agent="Mozilla/5.0 (Macintosh; Intel Mac OS X 10_15_7) AppleWebKit/537.36 (KHTML, like Gecko) Chrome/114.0.0.0 Safari/537.36" version="21.2.7" etag="jzrwBjP7qyJcYEC9YjeI" type="github">
  <diagram name="Page-1" id="9mrOFJdUADJFZFu9dAWa">
    <mxGraphModel>
      <root>
        <mxCell id="0" />
        <mxCell id="1" parent="0" />
      </root>
    </mxGraphModel>
  </diagram>
</mxfile>
